<?xml version="1.0" standalone="no"?><!DOCTYPE svg PUBLIC "-//W3C//DTD SVG 1.1//EN" "http://www.w3.org/Graphics/SVG/1.1/DTD/svg11.dtd"><svg t="1555560959346" class="icon" style="" viewBox="0 0 1024 1024" version="1.1" xmlns="http://www.w3.org/2000/svg" p-id="9591" xmlns:xlink="http://www.w3.org/1999/xlink" width="200" height="200"><defs><style type="text/css"></style></defs><path d="M518.791505 479.126226m-428.081564 0a428.081564 428.081564 0 1 0 856.163128 0 428.081564 428.081564 0 1 0-856.163128 0Z" fill="#E3DEFF" p-id="9592"></path><path d="M636.089466 798.54371c-23.192267 0-54.18754-43.639032-61.412545-86.447188a565.465039 565.465039 0 0 1-8.092006-78.680308 10.620758 10.620758 0 0 0-11.343258-9.031257h-1.228251c-4.515628 0.36125-9.103507 0.614125-13.691385 0.686376-1.770126 19.579764-2.962252 38.400903-3.612503 56.029916-0.4335 12.101884 0 22.433641 0.21675 30.742397 0.939251 26.226769 2.673252 75.03168-46.565159 84.315812a25.287519 25.287519 0 0 1-4.660128 0.4335h-1.372751a24.131518 24.131518 0 0 1-18.712764-10.404007 22.505891 22.505891 0 0 1 15.425386-34.932901c4.335003-0.794751 13.330135-2.456502 12.065759-37.822902-0.180625-5.238129-0.180625-10.837508-0.180625-17.629013v-15.606012c-0.252875-20.41064-0.50575-25.901644-1.445001-43.566782a24.637268 24.637268 0 0 0-17.809638-21.675016 197.278769 197.278769 0 0 1-23.445142-9.428631 8.814506 8.814506 0 0 0-3.901503-0.903126 8.055881 8.055881 0 0 0-6.141255 2.673252 3.612503 3.612503 0 0 0-0.79475 3.142877c16.364637 76.585056 17.629013 96.128695 17.159387 104.184576a40.74903 40.74903 0 0 1-17.376137 31.212023c-10.837508 7.730756-26.154519 11.668384-45.481409 11.668384a147.209483 147.209483 0 0 1-22.542016-1.734001 24.059268 24.059268 0 0 1-15.895012-9.934383 21.964016 21.964016 0 0 1-3.612502-16.942637 23.734142 23.734142 0 0 1 23.517392-18.568264 25.576519 25.576519 0 0 1 4.082128 0.325125 93.527694 93.527694 0 0 0 14.45001 1.047626 49.960912 49.960912 0 0 0 15.064136-1.770126c-0.614125-14.666761-11.271008-71.780428-34.607775-172.099626l-0.4335-0.722501a163.032244 163.032244 0 0 0-49.346786-49.057786 169.137374 169.137374 0 0 1-55.271291-60.401044C242.037677 379.312778 239.689551 313.673605 263.098568 268.445072c14.666761-28.430396 37.786778-46.745784 66.867424-52.959289a150.894236 150.894236 0 0 1 31.645523-3.395753 137.889226 137.889226 0 0 1 91.829817 33.99365 22.253016 22.253016 0 0 1-0.939251 33.27115 24.637268 24.637268 0 0 1-16.003386 5.816129 24.312143 24.312143 0 0 1-16.870388-6.647005 90.962817 90.962817 0 0 0-58.089042-20.62739 101.150074 101.150074 0 0 0-21.097016 2.275877c-18.062513 3.901503-28.900021 17.701263-34.391025 28.574895-16.473012 31.826148-14.16101 82.401185 5.310379 117.659212a122.82509 122.82509 0 0 0 39.376279 43.350031c3.359627-90.782191 85.435688-163.71862 185.827136-163.718619 95.51457 0 174.628378 66.217173 184.815635 150.93036 14.847386-15.533761 30.670147-36.414027 37.642278-59.895294 10.837508-36.919777 7.04438-67.77055-11.126508-89.19269a88.036689 88.036689 0 0 0-61.412545-29.369647 59.750794 59.750794 0 0 0-45.770409 20.988641 24.384393 24.384393 0 0 1-19.507514 9.573132 24.709518 24.709518 0 0 1-12.788259-3.612503 22.831017 22.831017 0 0 1-10.837508-15.064136 22.108516 22.108516 0 0 1 3.937628-17.484513A109.16983 109.16983 0 0 1 686.375503 212.884781a136.877725 136.877725 0 0 1 98.729697 46.312284c19.83264 23.372892 39.376279 65.025048 20.013265 130.51972-14.450011 48.660411-53.501164 85.869188-76.837932 104.545827l-15.858886 26.66027c-2.962252 20.446765-5.418754 39.737529-7.225005 57.800042-9.356382 85.760813-3.937628 111.987582-1.806252 118.345587h0.289a12.499259 12.499259 0 0 0 0.830876-2.492627 23.589642 23.589642 0 0 1 23.625767-19.110139 26.80477 26.80477 0 0 1 3.395753 0.21675 24.131518 24.131518 0 0 1 16.184012 9.464757 21.675016 21.675016 0 0 1 4.082128 16.689762c-0.722501 4.587878-5.563254 27.96077-27.707896 37.786778a45.047908 45.047908 0 0 1-18.279263 3.793127 62.785296 62.785296 0 0 1-28.394271-7.586255c-21.241516-10.837508-32.187399-40.171029-21.097015-150.460735a190.342764 190.342764 0 0 1-27.52727 17.556763 24.854018 24.854018 0 0 0-14.450011 21.855641v11.162633c0.397375 28.430396 0.65025 48.949411 5.671629 73.008678a88.867565 88.867565 0 0 0 23.192267 45.192408 22.722642 22.722642 0 0 1 20.55514 16.509137 21.06089 21.06089 0 0 1-2.384252 16.509138 23.192267 23.192267 0 0 1-14.81126 10.440132 51.189162 51.189162 0 0 1-10.656883 1.011501z" fill="#FFFFFF" p-id="9593"></path><path d="M361.611515 224.914415a126.437593 126.437593 0 0 1 83.087561 30.453397 9.392507 9.392507 0 0 1-0.469626 14.197135 11.632259 11.632259 0 0 1-7.62238 2.745502 11.487758 11.487758 0 0 1-8.019756-3.106752 102.667325 102.667325 0 0 0-66.939674-24.167643 113.071333 113.071333 0 0 0-23.770268 2.564877c-23.156142 4.949129-36.125026 21.891766-43.350031 35.258026-18.532139 35.872151-16.220137 90.312566 5.527129 129.761095a132.000847 132.000847 0 0 0 64.374797 59.281169 143.127355 143.127355 0 0 1-1.011501-16.184012c0-86.374938 77.632682-156.638115 173.075002-156.638115s172.786002 70.010301 173.075002 156.168489v0.469626c0 3.612503-0.180625 6.89988-0.433501 10.331757 20.663515-17.231638 51.044662-47.685035 62.135046-85.146687 12.210259-41.290905 7.47788-76.259931-13.65526-101.150074A100.535949 100.535949 0 0 0 686.375503 245.830805a73.044803 73.044803 0 0 0-56.029916 26.082269 11.379383 11.379383 0 0 1-9.248007 4.479503 11.993509 11.993509 0 0 1-6.141255-1.661751 9.500882 9.500882 0 0 1-3.106752-13.94426 95.695195 95.695195 0 0 1 74.52593-35.041276 123.294715 123.294715 0 0 1 88.939815 41.760531c17.773513 20.952515 35.221901 58.522543 17.484513 118.598462-13.691385 46.312284-51.911663 81.895435-74.345305 99.560573l-18.387638 30.923022c-2.673252 18.351513-5.454879 39.340154-7.766881 60.617795-12.499259 114.805334 0.50575 128.568969 2.023002 129.761095a27.45502 27.45502 0 0 0 11.307133 3.431877 8.417131 8.417131 0 0 0 3.359627-0.614125c4.732378-2.059127 7.47788-9.681507 8.055881-13.00501a10.837508 10.837508 0 0 1 10.837508-8.525506 12.824384 12.824384 0 0 1 1.661751 0 10.223382 10.223382 0 0 1 9.320257 11.379383c-0.325125 2.095252-3.829253 20.808015-20.230015 28.069146a32.006773 32.006773 0 0 1-13.077259 2.709377 49.888662 49.888662 0 0 1-22.542017-6.17738c-13.546885-6.936005-25.721019-29.730897-13.294009-146.125732V578.000423a9.139632 9.139632 0 0 0-9.609258-9.573132 9.789882 9.789882 0 0 0-6.249629 2.348127 173.400127 173.400127 0 0 1-31.175898 20.77189 37.570028 37.570028 0 0 0-21.241515 33.4879c0.541875 33.84915 0.180625 58.089043 6.069004 86.700063 7.839131 37.678403 30.525647 55.668666 31.753898 55.668666a10.837508 10.837508 0 0 1 2.384252-0.289 9.934382 9.934382 0 0 1 9.753757 7.04438 9.211882 9.211882 0 0 1-7.514005 11.090383 41.868906 41.868906 0 0 1-7.911381 0.686376c-13.113385 0-41.832781-34.6439-48.768786-75.862556a554.157906 554.157906 0 0 1-7.875256-76.982431 23.372892 23.372892 0 0 0-24.203767-21.458266h-2.312002c-5.382629 0.469625-10.837508 0.686376-16.364637 0.686375a8.344881 8.344881 0 0 0-8.597756 7.225006c-1.625626 17.231638-3.287377 38.726028-4.082128 61.412545-0.469625 12.571509 0 23.156142 0.21675 31.645523 0.975376 27.59952 1.625626 64.158047-36.125027 71.274677a12.138009 12.138009 0 0 1-2.275876 0.21675h-0.686376a9.970507 9.970507 0 0 1-1.625626-19.868764c19.543639-3.612503 23.517392-23.625767 22.578142-50.936288-0.325125-8.778381 0-19.724264-0.252876-32.946024-0.252875-20.77189-0.541875-26.624145-1.445001-44.072532a37.533902 37.533902 0 0 0-26.660269-33.054399 181.022508 181.022508 0 0 1-21.891766-8.814507 22.036266 22.036266 0 0 0-9.464757-2.167501c-11.740634 0-22.000141 9.573132-19.507515 21.34989 9.609257 44.975658 17.665138 87.603189 16.906513 100.752699a27.707895 27.707895 0 0 1-12.029634 21.675016c-10.440133 7.441755-25.648769 9.248007-38.003528 9.248007a135.830099 135.830099 0 0 1-20.446765-1.553376 10.115007 10.115007 0 0 1-8.922881-11.668384 10.837508 10.837508 0 0 1 10.837508-8.272631 12.318634 12.318634 0 0 1 1.986876 0.180625 111.590207 111.590207 0 0 0 16.436887 1.228251c9.356382 0 19.110139-1.228251 24.276018-4.949128a8.200381 8.200381 0 0 0 3.612503-6.791505c0.975376-16.942637-18.062513-105.701827-35.402526-179.974882l-1.589502-2.564877a176.217879 176.217879 0 0 0-53.176038-52.959289 155.807239 155.807239 0 0 1-51.044663-55.885416C255.331687 376.531151 252.875185 315.949481 274.550201 274.333451c12.860509-24.890143 32.946024-40.89353 58.125168-46.276159a137.744726 137.744726 0 0 1 28.900021-3.142877m0-25.684894a164.657871 164.657871 0 0 0-34.3549 3.612503c-32.946024 7.04438-59.064418 27.67177-75.573556 59.606293-25.648769 49.599661-23.192267 118.526212 6.069005 171.521626a181.383758 181.383758 0 0 0 59.461793 65.025047 150.930361 150.930361 0 0 1 44.831158 44.072533c18.568264 80.016934 28.900021 132.434347 32.512524 156.023989H393.762788a80.956184 80.956184 0 0 1-12.318634-0.939251 42.591406 42.591406 0 0 0-6.105129-0.469625 36.594652 36.594652 0 0 0-36.125027 28.900021 34.896776 34.896776 0 0 0 5.563255 26.840895 37.100402 37.100402 0 0 0 24.420517 15.280886 161.009243 161.009243 0 0 0 24.601143 1.914626c22.072391 0 39.737529-4.732378 52.959289-14.08876a53.284414 53.284414 0 0 0 22.722642-40.929655c0.541875-8.922882-0.722501-27.780145-14.450011-93.672193 4.840754 2.023001 9.789882 3.829253 14.775136 5.491004a12.101884 12.101884 0 0 1 8.995132 9.970507c0.939251 17.556763 1.192126 22.975517 1.445001 43.097156v33.4879c0.578 16.509137-1.264376 22.794892-2.131377 24.854018a35.330276 35.330276 0 0 0-23.192267 54.62104 37.028152 37.028152 0 0 0 28.647146 16.039512h2.095252a38.039653 38.039653 0 0 0 7.008255-0.650251c26.082269-4.913004 44.144782-20.55514 52.272913-45.192408 5.563254-16.870387 5.418754-34.3549 4.804629-52.236788-0.289-8.092006-0.65025-18.062513-0.216751-29.803147 0.469625-14.01651 1.372751-28.900021 2.601002-44.180907h1.697877a582.371552 582.371552 0 0 0 8.128131 76.874056 159.817117 159.817117 0 0 0 26.335144 63.760672c10.837508 15.244761 27.67177 33.379524 47.757285 33.379524a63.724547 63.724547 0 0 0 13.43851-1.300501 35.872151 35.872151 0 0 0 23.011642-16.292387 33.7769 33.7769 0 0 0 3.793127-26.551894 35.366401 35.366401 0 0 0-26.588019-25.287519 77.849432 77.849432 0 0 1-16.978763-35.763776c-4.732378-22.867142-5.021379-42.880406-5.382629-70.588301v-11.162634a12.174134 12.174134 0 0 1 7.441756-10.295632c2.167502-1.119876 4.298878-2.312002 6.430255-3.612503-2.853877 37.244902-2.709377 65.350173 0.289 85.399563 2.492627 16.581387 8.344881 39.918154 30.056022 51.044662a75.17618 75.17618 0 0 0 34.28265 9.031257 57.800042 57.800042 0 0 0 23.481267-4.913004c28.177521-12.463134 34.28265-41.724406 35.185776-47.468285a34.535525 34.535525 0 0 0-6.430255-26.371269 37.064277 37.064277 0 0 0-24.709518-14.450011 36.703027 36.703027 0 0 0-5.202004-0.36125 37.895153 37.895153 0 0 0-15.317011 3.215128 684.027376 684.027376 0 0 1 5.129754-85.796938c1.842376-16.942637 4.154378-35.330276 6.936005-54.657165l6.032879-10.151133 7.225006-12.318634c24.745643-20.12164 64.302547-58.739293 79.294433-109.45883 11.560008-39.304029 17.014887-95.73132-22.542017-142.440979A148.546109 148.546109 0 0 0 686.375503 200.024272 120.838214 120.838214 0 0 0 591.149933 245.65018a35.185776 35.185776 0 0 0-6.17738 27.59952 32.512524 32.512524 0 0 0 1.806252 6.141255 216.136033 216.136033 0 0 0-122.82509 6.647005 35.041276 35.041276 0 0 0-1.806252-49.130036 151.472236 151.472236 0 0 0-100.716573-37.570028zM340.659 424.830311a116.611585 116.611585 0 0 1-18.062514-24.637268c-17.592888-31.826148-19.796514-77.199182-5.165879-105.557327C323.788612 282.389332 332.350243 275.019826 343.187751 272.74395a87.314189 87.314189 0 0 1 18.387639-1.986877 77.054681 77.054681 0 0 1 49.346786 17.195513 37.172652 37.172652 0 0 0 25.612644 10.078882h0.36125c-49.924787 26.66027-86.122063 72.683553-96.200945 126.798843z m310.097227-137.2751a47.72116 47.72116 0 0 1 35.619276-16.003387A75.212305 75.212305 0 0 1 738.106541 296.225217c19.254639 22.686517 15.280886 54.54879 8.597756 77.235307a118.128837 118.128837 0 0 1-18.062513 35.0774c-13.619135-46.745784-46.962534-86.122063-91.468567-110.145205a36.377902 36.377902 0 0 0 13.619135-10.837508z" fill="#404951" p-id="9594"></path><path d="M397.122416 475.152473s13.474635-97.537571 141.826854-101.583574c121.560714-3.829253 137.600226 90.890567 137.600226 90.890566s-52.706414 51.442038-68.818176 52.489664-210.608904-41.796656-210.608904-41.796656z" fill="#E3DEFF" p-id="9595"></path><path d="M536.384393 530.785014c-58.269668 0-106.315953-41.832781-119.682213-54.657165a17.159388 17.159388 0 0 1 0-24.854018c13.330135-12.824384 61.412545-54.657165 119.646088-54.657166s106.352078 41.832781 119.718338 54.657166a17.195513 17.195513 0 0 1 0 24.854018c-13.330135 12.824384-61.37642 54.657165-119.682213 54.657165z" fill="#FFFFFF" p-id="9596"></path><path d="M536.384393 409.477175c53.717914 0 98.729697 39.448529 110.795456 51.044662a4.335003 4.335003 0 0 1 0 6.358005c-12.065759 11.596133-57.077542 51.080787-110.795456 51.080787s-98.693572-39.484654-110.759331-51.080787a4.335003 4.335003 0 0 1 0-6.358005c12.065759-11.596133 57.077542-51.044662 110.759331-51.044662m0-25.721019c-63.074296 0-114.335709 44.578283-128.568969 58.233543a30.019897 30.019897 0 0 0 0 43.350031c14.23326 13.65526 65.494673 58.233543 128.568969 58.233543s114.371834-44.578283 128.605094-58.233543a30.019897 30.019897 0 0 0 0-43.350031c-14.23326-13.65526-65.494673-58.233543-128.605094-58.233543z" fill="#404951" p-id="9597"></path><path d="M482.630353 461.930713a55.162915 49.924787 0 1 0 110.325831 0 55.162915 49.924787 0 1 0-110.325831 0Z" fill="#CBB8FF" p-id="9598"></path><path d="M537.793269 524.679884c-37.497777 0-67.9873-28.141396-67.9873-62.749171s30.489522-62.749171 67.9873-62.749171 68.023425 28.141396 68.023425 62.749171-30.525647 62.749171-68.023425 62.749171z m0-99.813448c-23.300642 0-42.302406 16.617512-42.302406 37.064277s19.001764 37.064277 42.302406 37.064277 42.338531-16.617512 42.338531-37.064277-19.001764-37.064277-42.338531-37.064277z" fill="#404951" p-id="9599"></path><path d="M337.660622 247.564806a107.435829 107.435829 0 0 1 62.604671 4.804629 106.388203 106.388203 0 0 0-77.235306-11.921259c-23.156142 4.949129-36.125026 21.891766-43.133282 35.221901-18.532139 35.872151-16.220137 90.312566 5.491004 129.79722a132.362097 132.362097 0 0 0 64.374797 59.281168v-0.252875a134.096098 134.096098 0 0 1-49.744161-51.911663c-21.675016-39.340154-24.023143-93.925069-5.491004-129.761095 6.89988-13.330135 19.97714-30.272772 43.133281-35.258026zM614.84795 274.550201a11.849009 11.849009 0 0 0 15.389262-2.817752A73.225429 73.225429 0 0 1 686.375503 245.65018a91.902067 91.902067 0 0 1 32.512524 7.225005 98.729697 98.729697 0 0 0-47.251535-14.01651 73.225429 73.225429 0 0 0-56.066041 26.082269 10.837508 10.837508 0 0 1-5.382629 3.829253 9.970507 9.970507 0 0 0 4.660128 5.780004zM429.41819 262.412192a11.451633 11.451633 0 0 1-6.10513 2.637127 62.424046 62.424046 0 0 1 5.057504 4.118253 11.921259 11.921259 0 0 0 15.678261 0.36125 9.392507 9.392507 0 0 0 0.433501-14.197135 116.28646 116.28646 0 0 0-33.70465-20.519015 101.728075 101.728075 0 0 1 19.110139 13.402385 9.392507 9.392507 0 0 1-0.469625 14.197135zM639.412968 767.114937a12.607634 12.607634 0 0 1-3.431877-2.492627 8.128131 8.128131 0 0 1 0.93925 2.131377 9.175757 9.175757 0 0 1-7.55013 11.054258 32.946024 32.946024 0 0 1-6.68313 0.686375c5.129754 4.587878 9.862132 7.225005 13.43851 7.225005a42.302406 42.302406 0 0 0 7.911381-0.686375 9.211882 9.211882 0 0 0 7.514005-11.090383 10.151132 10.151132 0 0 0-12.138009-6.82763z" fill="#E3DEFF" p-id="9600"></path><path d="M775.243068 267.325196a119.501588 119.501588 0 0 0-45.589784-32.512524 115.600085 115.600085 0 0 1 30.959148 25.287519c17.773513 20.952515 35.221901 58.558668 17.448388 118.598461-12.318634 41.724406-44.506033 74.706555-67.192549 93.925069a71.057927 71.057927 0 0 1-1.697877-26.985395c1.300501-13.474635-3.865378-30.345022-11.126508-46.131658a151.147111 151.147111 0 0 0-13.980385-25.540394 122.82509 122.82509 0 0 0-15.967262-21.097016c-2.709377-2.564877-7.225005-6.719255-13.51076-11.596133A174.989628 174.989628 0 0 0 610.838072 314.28773l0.578001 0.36125a156.74649 156.74649 0 0 0-54.47654-14.45001s138.864602 60.003669 131.639596 185.610386a51.442038 51.442038 0 0 1-25.287518 41.074155c-30.995273 18.459889-82.14831 42.483031-138.792352 42.483031-92.010442 0-138.503351-36.125026-138.503351-36.125026s5.129754 35.330276 10.187257 48.335285c1.372751 3.612503 8.344881 7.225005 19.110139 10.837508a16.220137 16.220137 0 0 0-3.323502 13.835885c9.609257 44.939533 17.665138 87.567064 16.906512 100.752699a27.81627 27.81627 0 0 1-12.065759 21.675016c-10.404008 7.441755-25.648769 9.248007-38.003528 9.248006A134.168348 134.168348 0 0 1 364.862767 736.95054a10.837508 10.837508 0 0 0 8.381006 6.321879 133.662598 133.662598 0 0 0 20.41064 1.589502c12.354759 0 27.59952-1.842376 38.003528-9.284132a27.74402 27.74402 0 0 0 12.065759-21.675016c0.758626-13.14951-7.225005-55.777041-16.906512-100.752699a16.581387 16.581387 0 0 1 5.418754-16.075637 517.780004 517.780004 0 0 0 81.823185 12.78826 7.40563 7.40563 0 0 0-0.686376 2.312001c-1.625626 17.231638-3.287377 38.726028-4.082128 61.412545-0.4335 12.571509 0 23.156142 0.21675 31.645524 0.975376 27.16602 1.589501 63.038171-34.463275 70.877301a10.837508 10.837508 0 0 0 10.042757 7.694631 11.776759 11.776759 0 0 0 2.962252-0.180625c37.750653-7.225005 37.100402-43.675157 36.125027-71.274677-0.289-8.489381-0.65025-19.074014-0.21675-31.609398 0.794751-22.542017 2.456502-44.036407 4.082128-61.412545a8.344881 8.344881 0 0 1 8.633881-7.225006c5.491004 0 10.837508-0.252875 16.328512-0.7225h3.106752q1.300501 0 2.601002 0.21675a0.975376 0.975376 0 0 1-0.289-0.252875 165.199746 165.199746 0 0 0 29.947647-3.901503 34.535525 34.535525 0 0 0-1.408876 10.187257c0.578 33.84915 0 58.089043 6.105129 86.700064 7.839131 37.859028 30.742398 55.849291 31.753899 55.632541a11.054258 11.054258 0 0 1 7.586255 1.08375 102.378325 102.378325 0 0 1-24.709518-49.599661c-5.924504-28.466521-5.527129-52.670289-6.105129-86.700063a35.799901 35.799901 0 0 1 8.597756-23.445143 252.33331 252.33331 0 0 0 68.095675-36.125026l-0.541876 4.768503c-12.463134 114.841459 0.50575 128.605094 2.023002 129.797221a25.540394 25.540394 0 0 0 12.282509 3.359627c-3.612503-8.850631-9.320257-37.208777 0.325125-126.004092 2.348127-21.277641 5.129754-42.302406 7.766881-60.617795l17.484513-30.164397c22.289141-17.412263 61.412545-53.320539 75.24843-100.283073 17.592888-60.039794 0.1445-97.609821-17.629013-118.706837zM729.725534 688.326254a11.632259 11.632259 0 0 0-5.491004 0.541876 8.995132 8.995132 0 0 1 0.180626 3.612502c-0.36125 2.095252-3.829253 20.808015-20.26614 28.069146a31.934523 31.934523 0 0 1-13.041135 2.709377 41.54378 41.54378 0 0 1-12.210259-1.950752 20.84414 20.84414 0 0 0 4.298878 2.890002 49.744161 49.744161 0 0 0 22.542017 6.17738 31.934523 31.934523 0 0 0 13.041134-2.709377c16.436887-7.225005 19.90489-25.937769 20.26614-28.069146a10.223382 10.223382 0 0 0-9.320257-11.271008z" fill="#E3DEFF" p-id="9601"></path></svg>